<?xml version="1.0" encoding="UTF-8"?>
<svg xmlns="http://www.w3.org/2000/svg">
            <symbol id="hat" viewBox="0 0 83.53 46.27">
          <path d="M21.98,15.88c.42.96,1.66,1.79,2.43,2.5.62.57,3.05,2.08,3.82,2.42,1.84.79,1.27.55,3.22,1.03,3.42.85,7.02.73,10.47,0-.26-.89-.42-1.81-.41-2.75,0-.29.04-.62.26-.82.15-.13.37-.17.57-.2.67-.1,1.35-.2,2.03-.17,1.59.09,2.89.75,4.23,1.6.13-.39.37-.69.71-.83.28-.11.59-.1.89.01-.06-.42,0-1.35.02-1.49.1-.57.28-1.12.52-1.65.24-.53.56-1.01.93-1.45.37-.44,1.25-1.01,1.7-1.12.59.45.92.82,1.41,1.33.77.82,1.15,1.24,1.38,1.53,1.25-.72,2.74-1.6,3.47-2.26-.64-1.97-1.75-4.35-3.71-6.56-5.25-5.91-14.65-8.37-22.65-4.93-9.29,4-11.52,13.71-11.84,15.39,0,0,.55-1.58.55-1.58Z"/>
         <path d="M82.5,14.29c-1.97-3.87-6.6-5.94-10.93-5.62-4.19.31-8.42,3.64-11.42,6.69h0c-.91.8-1.85,1.56-2.81,2.29.23.5.35,1.01.5,1.76.11.55.22.9.34,1.56-.86.72-2.19,1.04-3.29,1.13-.57.05-1.14-.04-1.72-.07-.51-.02-1.18-.22-1.37-.28,0,0,0,.02,0,.03,0,0,0,0,0,0l-.02-.03s-.02,0-.02,0h-.02s-.02-.09-.04-.13c-.1.49-.36.87-.76,1.04-.32.13-.67.1-1.01-.06-.16.27-.36.66-.76,1.17-.56.73-1.33,1.26-2.05,1.82-.2.16-2.47,1.79-2.47,1.79-.54-.9-1.09-1.81-1.57-2.76-.9.25-1.8.44-2.66.52-1.67.14-3.66.15-5.33,0-2.73-.24-3.81-.45-6.34-1.51-2.53-1.06-6.31-3.5-7.35-6.04v-.02c-.14-.07-.29-.13-.43-.21-3.81-1.92-8.4-2.42-12.39-.94-4,1.48-7.26,5.06-7.93,9.27-.72,4.46,1.4,8.93,4.23,12.46,2,2.5,4.43,4.72,7.35,6.03,3.35,1.51,7.14,1.72,10.82,1.56,4.42-.19,8.87-.9,12.9-2.72,3.68-1.67,6.89-4.21,10.04-6.74,4.6-3.71,9.17-7.5,14.22-10.56,5.05-3.06,10.66-5.4,16.55-5.93,1.32-.12,2.68-.15,3.91-.64s2.33-1.58,2.39-2.9c.03-.67-.22-1.33-.52-1.93h0Z"/>
            </symbol>
            <symbol id="umbrella" viewBox="0 0 75.84 67.57">
            <path d="M75.84,11.02L29.47,0,0,35.05l.21-.07c2.71,3.29,6.83,4.76,10.41,3.17,3.11-1.37,5.41-4.52,5.93-8.32,2.71,3.23,6.04,5.24,9.63,3.69,3.11-1.34,4.12-4.5,4.63-8.24l.18-.06c1.68,1.99,4.11,3.53,6.79,3.72,4.82,17.13,10.78,38.62,10.78,38.62h.52l2.07-.58-11.09-38.22c.48-.11.96-.27,1.45-.48,4.43-1.92,5.49-5.1,5.54-8.15l.13-.04c2.51,3.16,5.43,4.64,8.91,3.59,3.94-1.19,4.58-4.4,4.37-7.8h.02c2.39,3,5.62,5.28,9.79,3.47,4.53-1.97,5.52-5.16,5.52-8.27-1.21.36-2.27.68-3.24.98l3.31-1.05h0ZM16.8,28.69L28.74,1.92l.73-1.63.91,24.11-13.59,4.3h0ZM47.17,19.47L29.88.14l30,15.31-12.71,4.03h0Z"/>
            </symbol>
            <symbol id="sunCream" viewBox="0 0 46.21 72.01">
            <path d="M30.85.93c-11.15-3.17-20.02,2.7-20.99,3.36C6.96,23.49,3.37,39.35.47,58.55c.23.26.65.9,1.22,1.72-.73.65-1.27,1.44-1.52,2.36-.97,3.49,2.36,7.47,7.44,8.88,5.09,1.41,10-.27,10.98-3.76.13-.45.18-.92.17-1.38.71-.15,1.25-.29,1.55-.4,9.39-17.28,16.51-31.38,25.9-48.66-.45-1.09-4.4-13.27-15.36-16.39h0ZM29.29,3.44l1.62.36-.83,3.76-1.62-.36s.83-3.76.83-3.76ZM30.91,22.14l-2.02,3.98-2.25-2.65,4.27-1.33h0ZM24.61,2.68l1.65.15-.34,3.83-1.65-.15s.34-3.83.34-3.83ZM25.48,18.62l.57,4.43-3.35-.93,2.78-3.49h0ZM20.31,2.75h1.65v3.85h-1.65v-3.85ZM18.78,18.42l2.65,3.6-3.38.8.74-4.4h0ZM17.26,3.2l.57,3.81-1.63.25-.57-3.81,1.63-.25ZM16.95,23.19l-2.61,2.29-1.42-4.23,4.03,1.94h0ZM13.46,4.53l.97,3.73-1.6.41-.97-3.73,1.6-.41ZM13.77,26.11l-.92,3.35-3.52-2.76,4.43-.59h0ZM16.03,36.95l-4.2,1.55,1.82-4.08,2.38,2.53ZM12.44,30.51l.87,3.36-4.43-.65,3.56-2.71ZM10.66,61.58c-3.68-1.19-6.54-2.8-8.54-4.12l17.36,5.77c-2.31-.13-5.37-.53-8.82-1.65h0ZM17,42.06v-4.46l3.2,1.35-3.2,3.11ZM14.1,30.24c0-3.99,3.24-7.22,7.24-7.22s7.24,3.23,7.24,7.22-3.24,7.22-7.24,7.22-7.24-3.23-7.24-7.22ZM24.06,42.42l-2.65-3.6,3.38-.8-.74,4.4ZM25.66,37.64l2.61-2.29,1.42,4.23-4.03-1.94h0ZM28.7,34.75l1.08-3.3,3.38,2.93-4.46.37h0ZM29.9,30.47l-.44-3.44,4.31,1.2-3.87,2.24h0ZM32.6,9.18l1.43-3.57,1.54.61-1.43,3.57-1.54-.61ZM35.43,11.98l1.93-3.33,1.43.82-1.93,3.33-1.43-.82ZM38.41,15.47l2.07-3.25,1.39.88-2.07,3.25-1.39-.88ZM40.89,19.32l2.07-3.25,1.39.88-2.07,3.25-1.39-.88Z"/>
            </symbol>
            
            <symbol id="swimRing" viewBox="0 0 78.27 47.93">
            <path d="M39.21,0C15.81.08-.05,9.59,0,23.54c.05,13.95,16.25,24.47,39.64,24.39,23.4-.08,38.63-11.14,38.63-24.39C78.27,9.59,62.6-.08,39.21,0ZM70.91,30.64c-.42.78-1.25,1.89-2.23,2.69.16-.73.52-6.41-3.79-10.71-1.74-1.73-3.76-2.69-5.34-3.23-.55,2.03-2.72,3.87-5.97,5.28.89,1.27,1.93,3.08,2.63,5.42,1.34,4.44.71,8.27.3,10.06-.85.31-1.7.63-2.55.94.32-2.04.58-5.36-.3-9.27-.59-2.64-1.52-4.75-2.35-6.29-3.75,1.23-8.48,1.98-13.63,2-.44,0-.87,0-1.31-.01-.57,2.29-.39,4.42-.35,5.77.1,3.71,1.26,7.79,1.94,9.57-.88-.13-1.63-.17-2.51-.29-.72-1.55-2.08-5.71-2.08-10.01,0-1.72.01-3.79.56-5.14-5.11-.34-9.61-1.41-12.88-2.94-.8,1.38-1.76,3.39-2.36,5.98-.79,3.45-.58,6.38-.31,8.18-.75-.28-1.5-.56-2.25-.84-.35-1.58-.88-4.96.32-8.87.76-2.48,1.94-4.28,2.81-5.39.02,0,.04.02.06.03-2.34-1.44-3.71-3.17-3.72-5.04,0-.4.06-.8.18-1.19-1.27-.1-3.19-.08-5.46.86-4,1.66-5.82,4.89-6.31,5.86-.22-.45-.58-1.36-.45-2.49,0,0-.14.21.22-.51,1.23-2.43,5.68-4.65,6.54-4.9.5-.15,2.99-.87,6.24-.74.03,0,.13.07.15.08-.02.07-.06.17-.1.29,1.54-2.03,4.74-3.76,8.94-4.91-.42-.78-1.51-2.52-3.69-3.76-2.4-1.36-4.4-1.44-5.34-1.37-.01,0-.02.01-.04.02h-.15c.06,0,.12-.01.19-.02,1.19-.57,2.38-.87,3.42-1.24.75.04,2.53.22,4.28,1.46,2.24,1.58,2.92,3.8,3.1,4.48,2.44-.54,5.15-.9,8.02-1.03.06-.91.04-2.02-.16-3.28-.31-1.94-.95-3.77-1.5-4.83.65-.1,1.3.1,1.95,0,.45,1.01.97,2.46,1.2,4.25.2,1.51.14,2.81.02,3.82.25,0,.5,0,.76,0,2.63,0,5.16.17,7.5.51.17-1.05.74-3.47,2.84-5.49,1.01-.97,2.06-1.55,2.86-1.9.7.15,1.4.29,2.1.44-.9.46-2.03,1.15-3.15,2.2-1.89,1.77-2.86,3.71-3.34,4.97,2.89.51,5.45,1.26,7.54,2.21.87-.93,2.24-2.15,4.22-3.15,2.45-1.24,4.7-1.58,6.01-1.68.75.42,1.5.84,2.25,1.26-1.57.25-3.62.73-5.86,1.68-2.03.86-3.66,1.86-4.91,2.77,1.89,1.1,3.2,2.38,3.74,3.77,1.82.36,3.17.94,4.03,1.36,5.1,2.56,6.64,7.03,6.99,8.16.5,1.61.56,3.07.49,4.22h0Z"/>
            </symbol>
 
            
            <symbol id="juice" viewBox="0 0 38.53 71.49">
            <polygon points="6.5 44.91 7.72 47.4 13.03 43.87 6.5 44.91"/>
            <polygon points="6.96 40.85 6.28 43.5 12.91 43.46 6.96 40.85"/>
            <polygon points="9.89 37.69 7.62 39.5 13.05 42.89 9.89 37.69"/>
            <polygon points="12.01 49.88 13.58 43.95 9.28 48.68 12.01 49.88"/>
            <polygon points="21.4 41 20.19 38.51 14.88 42.05 21.4 41"/>
            <polygon points="15.72 36.25 14.2 42.01 18.44 37.47 15.72 36.25"/>
            <polygon points="21.31 45.17 21.71 42.48 14.77 43.02 21.31 45.17"/>
            <polygon points="13.91 50.3 16.9 49.8 14.2 44.25 13.91 50.3"/>
            <polygon points="11.01 36.69 13.65 42.12 14.01 36.21 11.01 36.69"/>
            <polygon points="18.81 48.77 20.83 46.74 14.63 43.65 18.81 48.77"/>
            <path d="M37.76,15.04c-2.15-4.87-8.16-7.32-13.43-5.47-3.28,1.15-5.5,3.71-6.18,6.64-1.08-.07-2.22-.11-3.39-.11-.12,0-.25,0-.37,0l-1.68-11.3.06-.16-.09-.04h0s0,0,0,0L1.02,0,0,2.59l10.16,4.01,1.42,9.59c-5.32.34-9.34,1.5-9.76,2.91h-.04v48.09c0,2.37,5.81,4.29,12.97,4.29s12.97-1.92,12.97-4.29V27.79c1.45.1,2.95-.08,4.39-.59,5.26-1.85,7.79-7.3,5.64-12.17h0ZM34.98,18.25l-6.74.07,6-2.69.74,2.63h0ZM33.35,14.36l-5.42,3.02,3.31-4.96,2.11,1.93ZM21.68,14.9l3.09,2.38c-1.08-.33-2.42-.61-3.94-.81l.85-1.58h0ZM14.73,52.57c-5.88,0-10.64-4.25-10.64-9.49s4.76-9.49,10.64-9.49,10.64,4.25,10.64,9.49-4.76,9.49-10.64,9.49ZM22.28,13.62l2.49-1.39,2.1,5.6-4.59-4.21h0ZM27.31,17.56l-.99-5.83,2.94.27-1.94,5.56h0ZM27.74,25.49v-4.88l.84,4.95-.84-.07h0ZM30.46,25.35l-2.22-5.71,4.7,4.31-2.48,1.4ZM34.22,22.39l-5.85-3.44,6.83.92-.98,2.52Z"/>
           </symbol>


           <symbol id="glasses" viewBox="0 0 77.8 30.46">
           <path d="M69.96,3.05l-.04.06v-.02s-14.7,9.8-14.7,9.8l-6.67.13-3.57-10.33-3.18,10.46-7.05.13c-.86-.56-2.64-1.37-5.36-1.25-1.33.06-3.43.74-4.44,1.23l-7.25.14-.48-1.39.31.47L31.75,2.99l6.4,4.13,1.32-2.06L31.63,0l-.04.06v-.02s-15.05,10.03-15.05,10.03l-2.42-7.01-3.18,10.46-10.93.21,8.97,6.26-3.18,10.46,8.72-6.59,8.97,6.26-3.57-10.33,5.25-3.96c.71-.36,3.24-1.31,5.08-1.25,1.74.06,3.35.73,3.89,1.05l.16.11s.02.02.02.02c0,0,0,0,0,0l5.52,3.85-3.18,10.46,8.72-6.59,8.97,6.26-3.57-10.33,5.37-4.06,13.95-9.3,6.4,4.13,1.32-2.06-7.85-5.06h0ZM17.89,18.97l2.24,6.49-5.63-3.93-5.48,4.14,2-6.57-5.63-3.93,6.86-.13,2-6.57,2.24,6.49,6.86-.13-5.48,4.14h0ZM48.75,18.59l2.24,6.49-5.63-3.93-5.48,4.14,2-6.57-5.63-3.93,6.86-.13,2-6.57,2.24,6.49,6.86-.13-5.48,4.14h0Z"/>
           </symbol>
</svg>